<?xml version="1.0" encoding="UTF-8"?>
<svg id="Ebene_2" data-name="Ebene 2" xmlns="http://www.w3.org/2000/svg" viewBox="0 0 841.89 199.6">
  <defs>
    <style>
      .cls-1 {
        fill: #bc3618;
      }

      .cls-2 {
        fill: #1e1e1e;
      }

      .cls-3 {
        fill: #020304;
      }

      .cls-4 {
        fill: #c94318;
      }

      .cls-5 {
        fill: #47b175;
      }

      .cls-6 {
        fill: #ee751f;
      }
    </style>
  </defs>
  <polygon class="cls-3" points="83.65 106.51 79.15 103.26 87.64 131.48 87.65 131.48 98.14 116.99 147.31 49.05 132.82 38.56 83.65 106.51"/>
  <path class="cls-3" d="M215.23,151.8l-30.71-85.92h18.81l21.74,63.59,21.04-63.59h18.4l-30.77,85.92h-18.52Z"/>
  <path class="cls-3" d="M341.94,151.8h-18.87l-7.5-19.52h-34.35l-7.09,19.52h-18.4l33.47-85.92h18.34l34.4,85.92ZM310,117.81l-11.84-31.88-11.6,31.88h23.44Z"/>
  <path class="cls-3" d="M351.61,151.8v-85.22h17.35v70.74h43.14v14.48h-60.49Z"/>
  <path class="cls-3" d="M421.61,65.88h17.35v46.54c0,7.38.21,12.17.64,14.36.74,3.52,2.51,6.34,5.3,8.47,2.79,2.13,6.61,3.19,11.46,3.19s8.63-1.01,11.13-3.02c2.5-2.01,4.01-4.48,4.51-7.41.51-2.93.76-7.8.76-14.59v-47.53h17.35v45.13c0,10.32-.47,17.6-1.41,21.86-.94,4.26-2.67,7.85-5.19,10.78-2.52,2.93-5.89,5.27-10.11,7s-9.73,2.61-16.53,2.61c-8.21,0-14.43-.95-18.67-2.84-4.24-1.89-7.59-4.36-10.05-7.38-2.46-3.03-4.08-6.2-4.86-9.52-1.13-4.92-1.7-12.19-1.7-21.8v-45.83Z"/>
  <path class="cls-3" d="M505.27,151.8v-85.92h63.71v14.54h-46.36v19.05h43.14v14.48h-43.14v23.38h48v14.48h-65.35Z"/>
  <path class="cls-3" d="M666.35,151.8h-18.87l-7.5-19.52h-34.34l-7.09,19.52h-18.4l33.47-85.92h18.35l34.4,85.92ZM634.4,117.81l-11.84-31.88-11.6,31.88h23.44Z"/>
  <path class="cls-3" d="M684.57,151.8v-71.39h-25.5v-14.54h68.28v14.54h-25.44v71.39h-17.35Z"/>
  <path class="cls-3" d="M737.14,151.8v-85.92h63.71v14.54h-46.36v19.05h43.14v14.48h-43.14v23.38h48v14.48h-65.35Z"/>
  <polygon class="cls-4" points="150.64 88.6 105.04 151.62 90.55 141.14 156.02 50.66 150.64 88.6"/>
  <polygon class="cls-5" points="64.96 122.62 82.89 182.23 64.96 122.62 64.96 122.62"/>
  <polygon class="cls-3" points="46.99 79.9 36.5 94.39 62.05 112.96 53.57 84.74 46.99 79.9"/>
  <polygon class="cls-2" points="53.57 84.74 62.05 112.96 73.16 121 87.64 131.48 79.15 103.26 53.57 84.74"/>
  <polygon class="cls-2" points="86.38 102.73 118.85 88.37 131.02 71.56 98.59 85.86 86.38 102.73"/>
  <polygon class="cls-1" points="135.64 78.83 128.22 119.59 108.62 146.68 115.25 107 135.64 78.83"/>
  <polygon class="cls-1" points="143.35 68.2 150.64 88.6 148.09 92.16 142.47 69.42 143.35 68.2"/>
  <polygon points="132.82 38.56 131.44 40.47 138.28 61.52 141.89 56.54 132.82 38.56"/>
  <polygon class="cls-2" points="105.04 151.62 90.55 141.14 97.03 162.69 105.04 151.62"/>
  <polygon class="cls-3" points="82.89 182.23 97.03 162.69 90.55 141.14 64.96 122.62 82.89 182.23"/>
  <polygon class="cls-3" points="36.5 94.39 36.5 96.77 87.65 131.48 36.5 94.39"/>
  <polygon class="cls-1" points="90.55 141.14 105.04 151.62 106.79 149.2 90.55 141.14"/>
  <polygon class="cls-6" points="168.88 20.81 150.64 88.6 132.82 38.56 168.88 20.81"/>
</svg>