<?xml version="1.0" encoding="UTF-8"?>
<svg xmlns="http://www.w3.org/2000/svg" viewBox="0 0 841.89 595.28">
  <defs>
    <style>
      .cls-1 {
        fill: #bc3618;
      }

      .cls-2 {
        fill: #1e1e1e;
      }

      .cls-3 {
        fill: #020304;
      }

      .cls-4 {
        fill: #1d1d1b;
        font-family: Arial-BoldMT, Arial;
        font-size: 9px;
        font-weight: 700;
      }

      .cls-5 {
        fill: #c94318;
      }

      .cls-6 {
        fill: #47b175;
      }

      .cls-7 {
        letter-spacing: -.02em;
      }

      .cls-8 {
        letter-spacing: -.06em;
      }

      .cls-9 {
        fill: #ee751f;
      }
    </style>
  </defs>
  <g id="Ebene_2" data-name="Ebene 2">
    <polygon class="cls-3" points="83.65 287.83 79.15 284.58 87.64 312.81 87.65 312.81 98.14 298.32 147.31 230.37 132.82 219.89 83.65 287.83"/>
    <path class="cls-3" d="M215.23,333.13l-30.71-85.92h18.81l21.74,63.59,21.04-63.59h18.4l-30.77,85.92h-18.52Z"/>
    <path class="cls-3" d="M341.94,333.13h-18.87l-7.5-19.52h-34.35l-7.09,19.52h-18.4l33.47-85.92h18.34l34.4,85.92ZM310,299.14l-11.84-31.88-11.6,31.88h23.44Z"/>
    <path class="cls-3" d="M351.61,333.13v-85.22h17.35v70.74h43.14v14.48h-60.49Z"/>
    <path class="cls-3" d="M421.61,247.21h17.35v46.54c0,7.38.21,12.17.64,14.36.74,3.52,2.51,6.34,5.3,8.47,2.79,2.13,6.61,3.19,11.46,3.19s8.63-1.01,11.13-3.02c2.5-2.01,4.01-4.48,4.51-7.41.51-2.93.76-7.8.76-14.59v-47.53h17.35v45.13c0,10.32-.47,17.6-1.41,21.86-.94,4.26-2.67,7.85-5.19,10.78-2.52,2.93-5.89,5.27-10.11,7s-9.73,2.61-16.53,2.61c-8.21,0-14.43-.95-18.67-2.84-4.24-1.89-7.59-4.36-10.05-7.38-2.46-3.03-4.08-6.2-4.86-9.52-1.13-4.92-1.7-12.19-1.7-21.8v-45.83Z"/>
    <path class="cls-3" d="M505.27,333.13v-85.92h63.71v14.54h-46.36v19.05h43.14v14.48h-43.14v23.38h48v14.48h-65.35Z"/>
    <path class="cls-3" d="M666.35,333.13h-18.87l-7.5-19.52h-34.34l-7.09,19.52h-18.4l33.47-85.92h18.35l34.4,85.92ZM634.4,299.14l-11.84-31.88-11.6,31.88h23.44Z"/>
    <path class="cls-3" d="M684.57,333.13v-71.39h-25.5v-14.54h68.28v14.54h-25.44v71.39h-17.35Z"/>
    <path class="cls-3" d="M737.14,333.13v-85.92h63.71v14.54h-46.36v19.05h43.14v14.48h-43.14v23.38h48v14.48h-65.35Z"/>
    <polygon class="cls-5" points="150.64 269.93 105.04 332.95 90.55 322.46 156.02 231.99 150.64 269.93"/>
    <polygon class="cls-6" points="64.96 303.94 82.89 363.56 64.96 303.94 64.96 303.94"/>
    <polygon class="cls-3" points="46.99 261.23 36.5 275.72 62.05 294.29 53.57 266.07 46.99 261.23"/>
    <polygon class="cls-2" points="53.57 266.07 62.05 294.29 73.16 302.32 87.64 312.81 79.15 284.58 53.57 266.07"/>
    <polygon class="cls-2" points="86.38 284.06 118.85 269.69 131.02 252.89 98.59 267.18 86.38 284.06"/>
    <polygon class="cls-1" points="135.64 260.15 128.22 300.92 108.62 328 115.25 288.32 135.64 260.15"/>
    <polygon class="cls-1" points="143.35 249.53 150.64 269.93 148.09 273.49 142.47 250.75 143.35 249.53"/>
    <polygon points="132.82 219.89 131.44 221.8 138.28 242.85 141.89 237.87 132.82 219.89"/>
    <polygon class="cls-2" points="105.04 332.95 90.55 322.46 97.03 344.01 105.04 332.95"/>
    <polygon class="cls-3" points="82.89 363.56 97.03 344.01 90.55 322.46 64.96 303.94 82.89 363.56"/>
    <polygon class="cls-3" points="36.5 275.72 36.5 278.09 87.65 312.81 36.5 275.72"/>
    <polygon class="cls-1" points="90.55 322.46 105.04 332.95 106.79 330.52 90.55 322.46"/>
    <polygon class="cls-9" points="168.88 202.14 150.64 269.93 132.82 219.89 168.88 202.14"/>
  </g>
  <g id="Ebene_3" data-name="Ebene 3">
    <rect class="cls-5" x="58.64" y="439.75" width="55.13" height="39.92"/>
    <rect class="cls-9" x="132.82" y="439.75" width="55.13" height="39.92"/>
    <rect class="cls-3" x="271.73" y="439.75" width="55.13" height="39.92"/>
    <rect class="cls-2" x="357.03" y="439.75" width="55.13" height="39.92"/>
    <text class="cls-4" transform="translate(134.75 501.91)"><tspan x="0" y="0">R 238</tspan><tspan x="0" y="10.8">G </tspan><tspan class="cls-8" x="9.5" y="10.8">1</tspan><tspan x="14.01" y="10.8">17</tspan><tspan x="0" y="21.6">B 31</tspan><tspan x="0" y="43.2">#ee751f</tspan></text>
    <text class="cls-4" transform="translate(271.73 501.91)"><tspan x="0" y="0">R 2</tspan><tspan x="0" y="10.8">G 3</tspan><tspan x="0" y="21.6">B 4</tspan><tspan x="0" y="43.2">#020304</tspan></text>
    <text class="cls-4" transform="translate(357.03 501.91)"><tspan x="0" y="0">R 30</tspan><tspan x="0" y="10.8">G 30</tspan><tspan x="0" y="21.6">B 30</tspan><tspan x="0" y="43.2">#1e1e1e</tspan></text>
    <text class="cls-4" transform="translate(475.8 446.19)"><tspan x="0" y="0">ARIA</tspan><tspan class="cls-7" x="22" y="0">L</tspan><tspan x="27.33" y="0" xml:space="preserve"> - Bold</tspan></text>
    <text class="cls-4" transform="translate(58.26 501.91)"><tspan x="0" y="0">R 201</tspan><tspan x="0" y="10.8">G 67</tspan><tspan x="0" y="21.6">B 24</tspan><tspan x="0" y="43.2">#c94318</tspan></text>
  </g>
</svg>