<?xml version="1.0" encoding="UTF-8"?>
<svg id="Ebene_2" data-name="Ebene 2" xmlns="http://www.w3.org/2000/svg" viewBox="0 0 159.7 199.6">
  <defs>
    <style>
      .cls-1 {
        fill: #bc3618;
      }

      .cls-2 {
        fill: #1e1e1e;
      }

      .cls-3 {
        fill: #020304;
      }

      .cls-4 {
        fill: #c94318;
      }

      .cls-5 {
        fill: #47b175;
      }

      .cls-6 {
        fill: #ee751f;
      }
    </style>
  </defs>
  <polygon class="cls-3" points="64.54 106.51 60.05 103.26 68.53 131.48 68.54 131.48 79.03 116.99 128.2 49.05 113.71 38.56 64.54 106.51"/>
  <polygon class="cls-4" points="131.53 88.6 85.93 151.62 71.44 141.14 136.92 50.66 131.53 88.6"/>
  <polygon class="cls-5" points="45.85 122.62 63.78 182.23 45.85 122.62 45.85 122.62"/>
  <polygon class="cls-3" points="27.88 79.9 17.39 94.39 42.95 112.96 34.46 84.74 27.88 79.9"/>
  <polygon class="cls-2" points="34.46 84.74 42.95 112.96 54.05 121 68.53 131.48 60.05 103.26 34.46 84.74"/>
  <polygon class="cls-2" points="67.27 102.73 99.75 88.37 111.91 71.56 79.49 85.86 67.27 102.73"/>
  <polygon class="cls-1" points="116.53 78.83 109.11 119.59 89.51 146.68 96.14 107 116.53 78.83"/>
  <polygon class="cls-1" points="124.24 68.2 131.53 88.6 128.98 92.16 123.36 69.42 124.24 68.2"/>
  <polygon points="113.71 38.56 112.33 40.47 119.17 61.52 122.78 56.54 113.71 38.56"/>
  <polygon class="cls-2" points="85.93 151.62 71.44 141.14 77.92 162.69 85.93 151.62"/>
  <polygon class="cls-3" points="63.78 182.23 77.92 162.69 71.44 141.14 45.85 122.62 63.78 182.23"/>
  <polygon class="cls-3" points="17.39 94.39 17.39 96.77 68.54 131.48 17.39 94.39"/>
  <polygon class="cls-1" points="71.44 141.14 85.93 151.62 87.68 149.2 71.44 141.14"/>
  <polygon class="cls-6" points="149.78 20.81 131.53 88.6 113.71 38.56 149.78 20.81"/>
</svg>