<?xml version="1.0" encoding="UTF-8"?>
<svg id="Ebene_2" data-name="Ebene 2" xmlns="http://www.w3.org/2000/svg" viewBox="0 0 663.08 199.6">
  <defs>
    <style>
      .cls-1 {
        fill: #020304;
      }
    </style>
  </defs>
  <path class="cls-1" d="M36.42,151.8L5.71,65.88h18.81l21.74,63.59,21.04-63.59h18.4l-30.77,85.92h-18.52Z"/>
  <path class="cls-1" d="M163.13,151.8h-18.87l-7.5-19.52h-34.35l-7.09,19.52h-18.4l33.47-85.92h18.34l34.4,85.92ZM131.19,117.81l-11.84-31.88-11.6,31.88h23.44Z"/>
  <path class="cls-1" d="M172.81,151.8v-85.22h17.35v70.74h43.14v14.48h-60.49Z"/>
  <path class="cls-1" d="M242.8,65.88h17.35v46.54c0,7.38.21,12.17.64,14.36.74,3.52,2.51,6.34,5.3,8.47,2.79,2.13,6.61,3.19,11.46,3.19s8.63-1.01,11.13-3.02c2.5-2.01,4.01-4.48,4.51-7.41.51-2.93.76-7.8.76-14.59v-47.53h17.35v45.13c0,10.32-.47,17.6-1.41,21.86-.94,4.26-2.67,7.85-5.19,10.78-2.52,2.93-5.89,5.27-10.11,7s-9.73,2.61-16.53,2.61c-8.21,0-14.43-.95-18.67-2.84-4.24-1.89-7.59-4.36-10.05-7.38-2.46-3.03-4.08-6.2-4.86-9.52-1.13-4.92-1.7-12.19-1.7-21.8v-45.83Z"/>
  <path class="cls-1" d="M326.46,151.8v-85.92h63.71v14.54h-46.36v19.05h43.14v14.48h-43.14v23.38h48v14.48h-65.35Z"/>
  <path class="cls-1" d="M487.54,151.8h-18.87l-7.5-19.52h-34.34l-7.09,19.52h-18.4l33.47-85.92h18.35l34.4,85.92ZM455.6,117.81l-11.84-31.88-11.6,31.88h23.44Z"/>
  <path class="cls-1" d="M505.77,151.8v-71.39h-25.5v-14.54h68.28v14.54h-25.44v71.39h-17.35Z"/>
  <path class="cls-1" d="M558.34,151.8v-85.92h63.71v14.54h-46.36v19.05h43.14v14.48h-43.14v23.38h48v14.48h-65.35Z"/>
</svg>