<?xml version="1.0" encoding="UTF-8"?>
<svg xmlns="http://www.w3.org/2000/svg" viewBox="0 0 841.89 254.11">
  <defs>
    <style>
      .cls-1 {
        fill: #bc3618;
      }

      .cls-2 {
        fill: #1e1e1e;
      }

      .cls-3 {
        fill: #020304;
      }

      .cls-4 {
        fill: #1d1d1b;
        font-family: ArialMT, Arial;
        font-size: 37.48px;
      }

      .cls-5 {
        fill: #c94318;
      }

      .cls-6 {
        fill: #47b175;
      }

      .cls-7 {
        letter-spacing: -.02em;
      }

      .cls-8 {
        letter-spacing: -.02em;
      }

      .cls-9 {
        letter-spacing: -.02em;
      }

      .cls-10 {
        letter-spacing: -.02em;
      }

      .cls-11 {
        letter-spacing: -.02em;
      }

      .cls-12 {
        letter-spacing: -.02em;
      }

      .cls-13 {
        letter-spacing: -.01em;
      }

      .cls-14 {
        letter-spacing: -.01em;
      }

      .cls-15 {
        letter-spacing: -.02em;
      }

      .cls-16 {
        letter-spacing: -.02em;
      }

      .cls-17 {
        letter-spacing: 0em;
      }

      .cls-18 {
        letter-spacing: -.01em;
      }

      .cls-19 {
        letter-spacing: -.01em;
      }

      .cls-20 {
        letter-spacing: -.01em;
      }

      .cls-21 {
        letter-spacing: -.01em;
      }

      .cls-22 {
        letter-spacing: -.01em;
      }

      .cls-23 {
        letter-spacing: -.01em;
      }

      .cls-24 {
        letter-spacing: -.01em;
      }

      .cls-25 {
        letter-spacing: 0em;
      }

      .cls-26 {
        letter-spacing: 0em;
      }

      .cls-27 {
        fill: #ee751f;
      }

      .cls-28 {
        letter-spacing: 0em;
      }

      .cls-29 {
        letter-spacing: 0em;
      }
    </style>
  </defs>
  <g id="Ebene_2" data-name="Ebene 2">
    <path class="cls-3" d="M215.23,151.8l-30.71-85.92h18.81l21.74,63.59,21.04-63.59h18.4l-30.77,85.92h-18.52Z"/>
    <path class="cls-3" d="M341.94,151.8h-18.87l-7.5-19.52h-34.35l-7.09,19.52h-18.4l33.47-85.92h18.34l34.4,85.92ZM310,117.81l-11.84-31.88-11.6,31.88h23.44Z"/>
    <path class="cls-3" d="M351.61,151.8v-85.22h17.35v70.74h43.14v14.48h-60.49Z"/>
    <path class="cls-3" d="M421.61,65.88h17.35v46.54c0,7.38.21,12.17.64,14.36.74,3.52,2.51,6.34,5.3,8.47,2.79,2.13,6.61,3.19,11.46,3.19s8.63-1.01,11.13-3.02c2.5-2.01,4.01-4.48,4.51-7.41.51-2.93.76-7.8.76-14.59v-47.53h17.35v45.13c0,10.32-.47,17.6-1.41,21.86-.94,4.26-2.67,7.85-5.19,10.78-2.52,2.93-5.89,5.27-10.11,7s-9.73,2.61-16.53,2.61c-8.21,0-14.43-.95-18.67-2.84-4.24-1.89-7.59-4.36-10.05-7.38-2.46-3.03-4.08-6.2-4.86-9.52-1.13-4.92-1.7-12.19-1.7-21.8v-45.83Z"/>
    <path class="cls-3" d="M505.27,151.8v-85.92h63.71v14.54h-46.36v19.05h43.14v14.48h-43.14v23.38h48v14.48h-65.35Z"/>
    <path class="cls-3" d="M666.35,151.8h-18.87l-7.5-19.52h-34.34l-7.09,19.52h-18.4l33.47-85.92h18.35l34.4,85.92ZM634.4,117.81l-11.84-31.88-11.6,31.88h23.44Z"/>
    <path class="cls-3" d="M684.57,151.8v-71.39h-25.5v-14.54h68.28v14.54h-25.44v71.39h-17.35Z"/>
    <path class="cls-3" d="M737.14,151.8v-85.92h63.71v14.54h-46.36v19.05h43.14v14.48h-43.14v23.38h48v14.48h-65.35Z"/>
    <text class="cls-4" transform="translate(186.52 210.78)"><tspan class="cls-25" x="0" y="0">K</tspan><tspan x="24.66" y="0">I </tspan><tspan class="cls-9" x="45.49" y="0">L</tspan><tspan class="cls-23" x="65.58" y="0">ö</tspan><tspan class="cls-10" x="86.02" y="0">s</tspan><tspan class="cls-11" x="104.1" y="0">u</tspan><tspan class="cls-20" x="124.3" y="0">n</tspan><tspan class="cls-18" x="144.63" y="0">g</tspan><tspan class="cls-21" x="165.06" y="0">e</tspan><tspan x="185.4" y="0">n </tspan><tspan class="cls-17" x="216.66" y="0">f</tspan><tspan class="cls-12" x="226.87" y="0">ü</tspan><tspan x="247.09" y="0">r </tspan><tspan class="cls-13" x="269.98" y="0">d</tspan><tspan class="cls-22" x="290.29" y="0">e</tspan><tspan x="310.63" y="0">n </tspan><tspan class="cls-26" x="341.89" y="0">M</tspan><tspan class="cls-16" x="372.81" y="0">i</tspan><tspan class="cls-29" x="380.56" y="0">t</tspan><tspan class="cls-8" x="391.32" y="0">t</tspan><tspan class="cls-24" x="400.93" y="0">e</tspan><tspan class="cls-14" x="421.35" y="0">l</tspan><tspan class="cls-7" x="429.16" y="0">s</tspan><tspan class="cls-28" x="447.21" y="0">t</tspan><tspan class="cls-15" x="457.52" y="0">a</tspan><tspan class="cls-19" x="477.79" y="0">n</tspan><tspan x="498.15" y="0">d</tspan></text>
  </g>
  <g id="Ebene_3" data-name="Ebene 3">
    <g>
      <polygon class="cls-3" points="66.78 142.47 62.28 139.22 70.77 167.44 70.78 167.44 81.27 152.95 130.44 85.01 115.95 74.52 66.78 142.47"/>
      <polygon class="cls-5" points="133.77 124.56 88.17 187.58 73.68 177.1 139.15 86.62 133.77 124.56"/>
      <polygon class="cls-6" points="48.09 158.58 66.02 218.19 48.09 158.58 48.09 158.58"/>
      <polygon class="cls-3" points="30.12 115.86 19.63 130.35 45.18 148.92 36.7 120.7 30.12 115.86"/>
      <polygon class="cls-2" points="36.7 120.7 45.18 148.92 56.29 156.96 70.77 167.44 62.28 139.22 36.7 120.7"/>
      <polygon class="cls-2" points="69.51 138.69 101.98 124.33 114.15 107.52 81.72 121.82 69.51 138.69"/>
      <polygon class="cls-1" points="118.77 114.79 111.35 155.55 91.75 182.64 98.38 142.96 118.77 114.79"/>
      <polygon class="cls-1" points="126.48 104.16 133.77 124.56 131.22 128.12 125.6 105.38 126.48 104.16"/>
      <polygon points="115.95 74.52 114.57 76.43 121.41 97.48 125.02 92.5 115.95 74.52"/>
      <polygon class="cls-2" points="88.17 187.58 73.68 177.1 80.16 198.65 88.17 187.58"/>
      <polygon class="cls-3" points="66.02 218.19 80.16 198.65 73.68 177.1 48.09 158.58 66.02 218.19"/>
      <polygon class="cls-3" points="19.63 130.35 19.63 132.73 70.78 167.44 19.63 130.35"/>
      <polygon class="cls-1" points="73.68 177.1 88.17 187.58 89.92 185.16 73.68 177.1"/>
      <polygon class="cls-27" points="152.01 56.77 133.77 124.56 115.95 74.52 152.01 56.77"/>
    </g>
  </g>
</svg>